<?xml version="1.0" encoding="UTF-8" standalone="no"?>
<!-- Created with Inkscape (http://www.inkscape.org/) -->

<svg
   xmlns:dc="http://purl.org/dc/elements/1.1/"
   xmlns:cc="http://creativecommons.org/ns#"
   xmlns:rdf="http://www.w3.org/1999/02/22-rdf-syntax-ns#"
   xmlns:svg="http://www.w3.org/2000/svg"
   xmlns="http://www.w3.org/2000/svg"
   xmlns:sodipodi="http://sodipodi.sourceforge.net/DTD/sodipodi-0.dtd"
   xmlns:inkscape="http://www.inkscape.org/namespaces/inkscape"
   width="210mm"
   height="297mm"
   viewBox="0 0 210 297"
   version="1.1"
   id="svg8"
   inkscape:version="0.92.4 (5da689c313, 2019-01-14)"
   sodipodi:docname="Hole.svg">
  <defs
     id="defs2" />
  <sodipodi:namedview
     id="base"
     pagecolor="#ffffff"
     bordercolor="#666666"
     borderopacity="1.0"
     inkscape:pageopacity="0.0"
     inkscape:pageshadow="2"
     inkscape:zoom="0.9899495"
     inkscape:cx="317.49071"
     inkscape:cy="920.15743"
     inkscape:document-units="mm"
     inkscape:current-layer="g4553"
     showgrid="false"
     inkscape:window-width="2560"
     inkscape:window-height="1377"
     inkscape:window-x="1912"
     inkscape:window-y="-8"
     inkscape:window-maximized="1"
     inkscape:snap-global="false">
    <inkscape:grid
       type="xygrid"
       id="grid3713" />
  </sodipodi:namedview>
  <metadata
     id="metadata5">
    <rdf:RDF>
      <cc:Work
         rdf:about="">
        <dc:format>image/svg+xml</dc:format>
        <dc:type
           rdf:resource="http://purl.org/dc/dcmitype/StillImage" />
        <dc:title />
      </cc:Work>
    </rdf:RDF>
  </metadata>
  <g
     inkscape:label="Layer 1"
     inkscape:groupmode="layer"
     id="layer1">
    <flowRoot
       xml:space="preserve"
       id="flowRoot4532"
       style="fill:black;fill-opacity:1;stroke:none;font-family:sans-serif;font-style:normal;font-weight:normal;font-size:40px;line-height:1.25;letter-spacing:0px;word-spacing:0px"><flowRegion
         id="flowRegion4534"><rect
           id="rect4536"
           width="45"
           height="45"
           x="275"
           y="212.51968" /></flowRegion><flowPara
         id="flowPara4538" /></flowRoot>    <g
       id="g4553"
       transform="translate(48.910324,-16.83798)">
      <g
         id="g829"
         transform="matrix(0.49999999,0,0,0.49999999,35.057294,37.375002)"
         inkscape:export-xdpi="96"
         inkscape:export-ydpi="96">
        <rect
           id="rect3717"
           width="26.458334"
           height="26.458334"
           x="70.114586"
           y="48.291668"
           style="fill:#9e0000;fill-opacity:1;stroke-width:0.3922444" />
        <path
           sodipodi:nodetypes="cccccccccccsc"
           inkscape:connector-curvature="0"
           id="path825"
           d="m 78.474415,52.559243 -2.595211,2.79122 c -1.605683,1.578336 -2.275769,3.468538 -3.171927,5.283382 -0.007,1.794357 0.162555,3.588713 1.153429,5.38307 1.284995,2.446213 2.730177,4.491961 4.517589,5.682133 2.157692,0.544216 4.149175,0.756016 6.055495,0.797489 2.044797,-0.288711 3.841829,-0.94907 5.382661,-1.993728 1.936582,-1.139294 2.765021,-2.500217 3.460282,-3.887776 0.859023,-1.75722 1.241376,-3.67333 1.345665,-5.682128 -0.04654,-1.309241 -0.28828,-0.95347 -1.350541,-4.38101 -0.112567,-1.07312 -2.579882,-3.879154 -3.263168,-3.992651 -0.433694,-0.68942 -5.732774,-1.657208 -6.247731,-1.69467 -1.166699,-0.08487 -5.635532,1.520175 -5.286543,1.694669 z"
           style="fill:#510000;fill-opacity:1;stroke:#000000;stroke-width:0.20718016;stroke-linecap:butt;stroke-linejoin:miter;stroke-miterlimit:4;stroke-dasharray:none;stroke-opacity:1" />
        <path
           sodipodi:nodetypes="cccccccccccsc"
           inkscape:connector-curvature="0"
           id="path825-6"
           d="m 79.493877,53.134531 -2.250861,2.586743 c -1.39263,1.462713 -1.973805,3.214444 -2.751054,4.896338 -0.0061,1.662908 0.140986,3.325815 1.000384,4.988723 1.114493,2.26701 2.367918,4.162893 3.918164,5.265877 1.871395,0.504348 3.598635,0.700632 5.252011,0.739067 1.77348,-0.267561 3.332069,-0.879544 4.668453,-1.847673 1.679624,-1.055833 2.39814,-2.317059 3.001149,-3.60297 0.745042,-1.628491 1.076662,-3.404233 1.167113,-5.265872 -0.04036,-1.21333 -0.250029,-0.883622 -1.171342,-4.060071 -0.09763,-0.994507 -2.237566,-3.594978 -2.830189,-3.700161 -0.376149,-0.638916 -4.972111,-1.535807 -5.41874,-1.570524 -1.011893,-0.07865 -4.887771,1.408812 -4.585088,1.570523 z"
           style="fill:#440000;fill-opacity:1;stroke:none;stroke-width:0.18574445;stroke-linecap:butt;stroke-linejoin:miter;stroke-miterlimit:4;stroke-dasharray:none;stroke-opacity:1" />
        <path
           sodipodi:nodetypes="cccccccccccsc"
           inkscape:connector-curvature="0"
           id="path825-2"
           d="m 80.562615,55.412716 -1.716485,1.846087 c -1.062006,1.043897 -1.505203,2.294059 -2.097926,3.49438 -0.0046,1.186771 0.107515,2.373541 0.762883,3.560312 0.849902,1.617903 1.805751,2.970942 2.987953,3.758111 1.427103,0.359939 2.744284,0.500021 4.005127,0.527452 1.352435,-0.190951 2.541005,-0.627706 3.560116,-1.318634 1.280866,-0.753518 1.828801,-1.65362 2.288642,-2.571339 0.568164,-1.162209 0.821058,-2.429506 0.890037,-3.758107 -0.03078,-0.86592 -0.190673,-0.630616 -0.893264,-2.897559 -0.07447,-0.709753 -1.706337,-2.565637 -2.158269,-2.640703 -0.28685,-0.455976 -3.79168,-1.096062 -4.132269,-1.12084 -0.771662,-0.05613 -3.727369,1.005431 -3.496545,1.12084 z"
           style="fill:#4a0000;fill-opacity:1;stroke:none;stroke-width:0.13702847;stroke-linecap:butt;stroke-linejoin:miter;stroke-miterlimit:4;stroke-dasharray:none;stroke-opacity:1" />
      </g>
    </g>
  </g>
</svg>
